<svg width="10" height="10" viewBox="0 0 10 10" fill="none" xmlns="http://www.w3.org/2000/svg">
<path d="M8.12451 2.00024H7.62451V1.00024C7.62451 0.867636 7.57183 0.740459 7.47807 0.646691C7.3843 0.552923 7.25712 0.500244 7.12451 0.500244C6.9919 0.500244 6.86473 0.552923 6.77096 0.646691C6.67719 0.740459 6.62451 0.867636 6.62451 1.00024V3.00024H6.12451V2.00024H3.62451V1.00024C3.62451 0.867636 3.57183 0.740459 3.47807 0.646691C3.3843 0.552923 3.25712 0.500244 3.12451 0.500244C2.9919 0.500244 2.86473 0.552923 2.77096 0.646691C2.67719 0.740459 2.62451 0.867636 2.62451 1.00024V3.00024H2.12451V2.00024H1.12451C0.859295 2.00024 0.604941 2.1056 0.417405 2.29314C0.229869 2.48067 0.124512 2.73503 0.124512 3.00024V8.49974C0.124512 8.76496 0.229869 9.01931 0.417405 9.20685C0.604941 9.39439 0.859295 9.49974 1.12451 9.49974H8.12451C8.38973 9.49974 8.64408 9.39439 8.83162 9.20685C9.01915 9.01931 9.12451 8.76496 9.12451 8.49974V3.00024C9.12451 2.73503 9.01915 2.48067 8.83162 2.29314C8.64408 2.1056 8.38973 2.00024 8.12451 2.00024ZM8.12451 8.49974H1.12451V4.50024H8.12451V8.49974Z" fill="white"/>
</svg>
