<svg width="7" height="10" viewBox="0 0 7 10" fill="none" xmlns="http://www.w3.org/2000/svg">
<path d="M3.62432 9.74091C4.90592 8.20278 6.82432 5.56705 6.82432 3.57451C6.82432 1.80918 5.38912 0.374512 3.62432 0.374512C1.85952 0.374512 0.424316 1.80918 0.424316 3.57451C0.424316 5.56758 2.34378 8.20385 3.62432 9.74091ZM3.62432 1.44118C4.80085 1.44118 5.75765 2.39798 5.75765 3.57451C5.75765 4.91105 4.45792 6.93078 3.62432 8.04438C2.79072 6.93185 1.49098 4.91371 1.49098 3.57451C1.49098 2.39798 2.44778 1.44118 3.62432 1.44118ZM3.62432 4.64118C3.03605 4.64118 2.55765 4.16225 2.55765 3.57451C2.55765 2.98624 3.03605 2.50784 3.62432 2.50784C4.21258 2.50784 4.69098 2.98624 4.69098 3.57451C4.69098 4.16278 4.21258 4.64118 3.62432 4.64118Z" fill="white"/>
</svg>
